<?xml version="1.0" standalone="no"?>
<!DOCTYPE svg PUBLIC "-//W3C//DTD SVG 20010904//EN"
 "http://www.w3.org/TR/2001/REC-SVG-20010904/DTD/svg10.dtd">
<svg version="1.0" xmlns="http://www.w3.org/2000/svg"
 width="512.000000pt" height="512.000000pt" viewBox="0 0 512.000000 512.000000"
 preserveAspectRatio="xMidYMid meet">
<metadata>
Created by potrace 1.11, written by Peter Selinger 2001-2013
</metadata>
<g transform="translate(0.000000,512.000000) scale(0.100000,-0.100000)"
fill="#000000" stroke="none">
<path d="M1365 4502 c-2 -2 -28 -6 -57 -7 -29 -2 -69 -7 -88 -10 -19 -4 -44
-8 -55 -10 -71 -10 -291 -77 -343 -104 -9 -5 -53 -27 -97 -48 -109 -52 -345
-198 -420 -261 -5 -4 -31 -23 -58 -41 -98 -67 -133 -130 -123 -225 3 -34 10
-62 16 -64 5 -2 10 -9 10 -16 0 -16 63 -79 94 -94 14 -6 37 -17 50 -23 42 -19
136 -18 194 4 30 10 109 58 177 106 67 48 144 100 171 116 27 16 51 31 54 34
12 14 181 92 250 115 164 56 346 74 505 52 28 -4 66 -9 87 -11 20 -3 62 -12
95 -21 32 -8 69 -17 83 -20 14 -3 52 -14 85 -25 84 -28 90 -30 92 -30 2 1 28
-10 58 -24 30 -13 55 -22 55 -20 0 4 79 -31 225 -100 39 -18 75 -34 80 -35 6
-2 52 -23 103 -46 50 -24 92 -41 92 -38 0 2 12 -2 28 -10 37 -19 292 -107 292
-100 0 2 8 0 18 -5 11 -6 30 -12 43 -14 13 -3 42 -10 64 -15 22 -6 56 -14 75
-17 19 -3 42 -8 50 -10 16 -4 39 -8 130 -22 30 -4 147 -8 260 -7 211 1 303 12
437 53 17 5 34 7 37 3 3 -3 6 1 6 8 0 7 3 11 6 7 6 -5 75 18 159 54 17 7 32
13 35 13 9 2 145 71 150 76 3 3 30 18 60 34 30 17 60 34 65 38 6 4 46 31 90
60 44 29 87 58 95 65 8 7 45 34 82 60 37 27 76 60 86 74 102 129 34 303 -138
357 -8 3 -49 5 -90 6 -64 1 -83 -3 -130 -27 -30 -16 -59 -34 -65 -41 -5 -6
-24 -21 -41 -31 -18 -11 -79 -53 -137 -92 -59 -40 -109 -73 -112 -73 -2 0 -27
-14 -55 -31 -28 -17 -56 -32 -63 -33 -6 -1 -27 -10 -45 -20 -40 -21 -168 -63
-214 -71 -18 -3 -40 -8 -48 -10 -20 -6 -142 -16 -195 -16 -119 0 -310 31 -445
72 -19 5 -42 12 -50 14 -22 6 -132 45 -155 55 -11 5 -45 19 -75 30 -30 12 -84
35 -120 52 -63 29 -111 51 -212 97 -61 27 -219 91 -238 97 -8 2 -51 16 -95 30
-84 29 -104 35 -120 40 -152 45 -317 79 -435 89 -30 2 -55 5 -55 5 0 4 -266 6
-270 2z"/>
<path d="M1329 3015 c-3 -2 -29 -6 -59 -9 -76 -6 -215 -35 -260 -53 -8 -3 -23
-8 -34 -10 -10 -2 -33 -9 -50 -17 -17 -8 -58 -24 -91 -37 -66 -25 -214 -101
-257 -130 -14 -11 -28 -19 -31 -19 -8 0 -129 -81 -145 -96 -6 -7 -21 -16 -32
-19 -11 -3 -20 -11 -20 -16 0 -5 -4 -9 -10 -9 -20 0 -166 -120 -188 -156 -88
-137 23 -322 205 -341 52 -6 156 12 178 29 20 16 171 122 255 179 78 52 272
157 303 163 7 2 24 8 38 14 48 19 114 35 214 52 55 9 290 6 345 -4 151 -28
223 -46 275 -66 17 -6 32 -11 35 -11 7 1 103 -30 115 -38 6 -3 16 -6 23 -7 15
-3 158 -64 272 -116 174 -80 199 -91 310 -136 63 -26 242 -88 275 -96 6 -2 30
-8 55 -15 25 -7 52 -15 60 -16 8 -2 43 -10 78 -18 34 -9 65 -16 67 -16 3 -1 6
-1 8 -2 2 -1 18 -3 97 -13 30 -4 71 -10 90 -13 101 -14 355 -9 465 11 17 3 46
8 65 11 119 20 301 84 442 155 90 45 306 174 318 190 3 4 40 30 83 59 113 77
162 127 181 185 42 125 -39 253 -181 290 -113 29 -179 9 -338 -105 -218 -156
-394 -253 -520 -285 -5 -2 -35 -10 -65 -18 -138 -39 -337 -41 -523 -5 -160 30
-400 110 -577 192 -119 55 -174 80 -180 82 -3 1 -27 12 -55 24 -89 41 -238 98
-325 126 -47 15 -92 29 -100 32 -8 3 -24 8 -35 10 -26 6 -37 9 -55 15 -14 5
-130 32 -190 44 -14 2 -45 7 -70 10 -24 3 -48 8 -54 11 -10 7 -401 15 -407 8z"/>
<path d="M1387 1535 c-1 -2 -33 -5 -70 -9 -244 -23 -480 -102 -722 -241 -60
-35 -285 -184 -303 -202 -7 -7 -16 -13 -20 -13 -4 0 -23 -14 -42 -31 -19 -17
-42 -36 -50 -43 -8 -6 -25 -30 -37 -53 -26 -50 -26 -141 0 -188 59 -108 188
-160 326 -131 35 7 151 73 151 86 0 4 11 12 25 18 14 7 31 16 38 22 42 35 107
80 107 73 0 -4 4 -3 8 3 17 28 289 171 337 178 5 1 15 4 20 8 14 8 152 39 205
45 25 3 90 6 145 6 108 0 159 -5 275 -28 14 -3 38 -8 54 -11 16 -2 33 -7 38
-10 4 -3 18 -7 30 -9 75 -15 386 -130 436 -161 12 -8 22 -12 22 -10 0 3 37
-13 82 -35 81 -41 130 -62 136 -59 2 1 13 -5 25 -12 25 -16 148 -65 247 -98
36 -12 74 -26 85 -31 26 -12 289 -78 334 -85 20 -3 47 -7 61 -9 64 -12 90 -15
165 -20 99 -8 257 -7 310 0 22 4 47 6 55 7 31 0 178 29 250 49 124 35 296 109
435 188 38 22 295 193 319 212 6 5 31 25 56 45 25 20 49 44 54 53 5 9 14 19
20 23 6 4 7 8 2 8 -5 0 -4 6 2 13 19 23 23 89 7 142 -11 39 -27 63 -60 94
-109 101 -248 106 -383 16 -84 -55 -194 -131 -207 -142 -44 -37 -301 -173
-328 -173 -6 0 -24 -6 -38 -14 -27 -14 -94 -32 -164 -43 -22 -4 -107 -7 -190
-6 -138 0 -187 3 -255 18 -14 3 -41 8 -60 12 -46 9 -50 10 -52 13 -2 1 -10 3
-19 5 -80 15 -320 103 -453 164 -60 28 -93 43 -226 103 -80 36 -213 89 -300
118 -36 12 -72 25 -80 28 -8 3 -21 6 -28 8 -7 1 -43 11 -80 23 -103 31 -291
66 -407 77 -55 5 -284 12 -288 9z"/>
</g>
</svg>
